<?xml version="1.0" encoding="UTF-8" standalone="no"?>
<!-- Uploaded to: SVG Repo, www.svgrepo.com, Transformed by: SVG Repo Mixer Tools -->

<svg
   width="65"
   height="220"
   viewBox="0 0 1.3 4.4"
   fill="none"
   version="1.1"
   id="svg3"
   sodipodi:docname="Resizer2.svg"
   inkscape:export-filename="Resizer2.png"
   inkscape:export-xdpi="96"
   inkscape:export-ydpi="96"
   xmlns:inkscape="http://www.inkscape.org/namespaces/inkscape"
   xmlns:sodipodi="http://sodipodi.sourceforge.net/DTD/sodipodi-0.dtd"
   xmlns="http://www.w3.org/2000/svg"
   xmlns:svg="http://www.w3.org/2000/svg">
  <defs
     id="defs3" />
  <sodipodi:namedview
     id="namedview3"
     pagecolor="#ffffff"
     bordercolor="#000000"
     borderopacity="0.25"
     inkscape:showpageshadow="2"
     inkscape:pageopacity="0.0"
     inkscape:pagecheckerboard="0"
     inkscape:deskcolor="#d1d1d1" />
  <g
     id="SVGRepo_iconCarrier"
     transform="matrix(0.32976689,0,0,0.32976689,-1.9805501,-0.46071346)">
    <path
       d="m 9.3554871,3.2827241 c 0,-0.7545198 -0.610952,-1.3661783 -1.3646003,-1.3661783 -0.7536483,0 -1.3646003,0.6116592 -1.3646003,1.3661783 0,0.7545198 0.610952,1.3661784 1.3646003,1.3661784 0.7536483,0 1.3646003,-0.6116586 1.3646003,-1.3661784 z"
       fill="#000000"
       id="path3"
       style="stroke-width:0.682694" />
    <path
       d="m 9.3554868,12.816017 c 0,-0.753648 -0.6109517,-1.3646 -1.3646001,-1.3646 -0.7536482,0 -1.3646002,0.610952 -1.3646002,1.3646 0,0.753648 0.610952,1.3646 1.3646002,1.3646 0.7536484,0 1.3646001,-0.610952 1.3646001,-1.3646 z"
       fill="#000000"
       id="path3-7"
       style="stroke-width:0.682299" />
    <path
       d="m 9.3554871,8.0379597 c 0,-0.7536481 -0.6109516,-1.3646002 -1.3646001,-1.3646002 -0.7536483,0 -1.3646005,0.6109521 -1.3646005,1.3646002 0,0.7536483 0.6109522,1.3646007 1.3646005,1.3646007 0.7536485,0 1.3646001,-0.6109524 1.3646001,-1.3646007 z"
       fill="#000000"
       id="path3-7-2"
       style="stroke-width:0.6823" />
  </g>
</svg>
